<?xml version="1.0" encoding="UTF-8" standalone="no"?>
<!DOCTYPE svg PUBLIC "-//W3C//DTD SVG 1.1//EN"
 "http://www.w3.org/Graphics/SVG/1.1/DTD/svg11.dtd">
<!-- Generated by graphviz version 2.36.0 (20140111.2315)
 -->
<!-- Title: G Pages: 1 -->
<svg width="440pt" height="277pt"
 viewBox="0.00 0.00 440.00 276.88" xmlns="http://www.w3.org/2000/svg" xmlns:xlink="http://www.w3.org/1999/xlink">
<g id="graph0" class="graph" transform="scale(1 1) rotate(0) translate(4 272.875)">
<title>G</title>
<polygon fill="white" stroke="none" points="-4,4 -4,-272.875 436,-272.875 436,4 -4,4"/>
<!-- taxa -->
<g id="node1" class="node"><title>taxa</title>
<text text-anchor="start" x="378" y="-159.9" font-family="Bitstream-Vera Sans" font-size="7.00">taxa</text>
<polygon fill="none" stroke="black" points="349,-153 349,-155 423,-155 423,-153 349,-153"/>
<text text-anchor="start" x="351" y="-145.4" font-family="Bitstream-Vera Sans" font-size="7.00">&#45; id</text>
<text text-anchor="start" x="351" y="-133.4" font-family="Bitstream-Vera Sans" font-size="7.00">&#45; ncbi_id</text>
<text text-anchor="start" x="351" y="-121.4" font-family="Bitstream-Vera Sans" font-size="7.00">&#45; name</text>
<text text-anchor="start" x="351" y="-109.4" font-family="Bitstream-Vera Sans" font-size="7.00">&#45; common_name_1</text>
<text text-anchor="start" x="351" y="-97.4" font-family="Bitstream-Vera Sans" font-size="7.00">&#45; common_name_2</text>
<text text-anchor="start" x="351" y="-85.4" font-family="Bitstream-Vera Sans" font-size="7.00">&#45; common_name_3</text>
<polygon fill="none" stroke="black" points="348,-80.5 348,-169.5 424,-169.5 424,-80.5 348,-80.5"/>
</g>
<!-- go_terms -->
<g id="node2" class="node"><title>go_terms</title>
<text text-anchor="start" x="142" y="-236.9" font-family="Bitstream-Vera Sans" font-size="7.00">go_terms</text>
<polygon fill="none" stroke="black" points="132,-230 132,-232 186,-232 186,-230 132,-230"/>
<text text-anchor="start" x="134" y="-222.4" font-family="Bitstream-Vera Sans" font-size="7.00">&#45; id</text>
<text text-anchor="start" x="134" y="-210.4" font-family="Bitstream-Vera Sans" font-size="7.00">&#45; go_id</text>
<text text-anchor="start" x="134" y="-198.4" font-family="Bitstream-Vera Sans" font-size="7.00">&#45; aspect</text>
<text text-anchor="start" x="134" y="-186.4" font-family="Bitstream-Vera Sans" font-size="7.00">&#45; name</text>
<text text-anchor="start" x="134" y="-174.4" font-family="Bitstream-Vera Sans" font-size="7.00">&#45; alternate_id</text>
<text text-anchor="start" x="134" y="-162.4" font-family="Bitstream-Vera Sans" font-size="7.00">&#45; description</text>
<polygon fill="none" stroke="black" points="131,-157.5 131,-246.5 187,-246.5 187,-157.5 131,-157.5"/>
</g>
<!-- genes -->
<g id="node3" class="node"><title>genes</title>
<text text-anchor="start" x="258.5" y="-159.9" font-family="Bitstream-Vera Sans" font-size="7.00">genes</text>
<polygon fill="none" stroke="black" points="244,-153 244,-155 295,-155 295,-153 244,-153"/>
<text text-anchor="start" x="246" y="-145.4" font-family="Bitstream-Vera Sans" font-size="7.00">&#45; id</text>
<text text-anchor="start" x="246" y="-133.4" font-family="Bitstream-Vera Sans" font-size="7.00">&#45; ncbi_id</text>
<text text-anchor="start" x="246" y="-121.4" font-family="Bitstream-Vera Sans" font-size="7.00">&#45; description</text>
<text text-anchor="start" x="246" y="-109.4" font-family="Bitstream-Vera Sans" font-size="7.00">&#45; symbol</text>
<text text-anchor="start" x="246" y="-97.4" font-family="Bitstream-Vera Sans" font-size="7.00">&#45; synonyms</text>
<text text-anchor="start" x="246" y="-85.4" font-family="Bitstream-Vera Sans" font-size="7.00">&#45; taxa_id</text>
<polygon fill="none" stroke="black" points="242.5,-80.5 242.5,-169.5 295.5,-169.5 295.5,-80.5 242.5,-80.5"/>
</g>
<!-- genes&#45;&gt;taxa -->
<g id="edge1" class="edge"><title>genes&#45;&gt;taxa</title>
<path fill="none" stroke="black" d="M303.572,-125C312.289,-125 321.899,-125 331.368,-125"/>
<ellipse fill="none" stroke="black" cx="335.628" cy="-125" rx="4" ry="4"/>
<text text-anchor="middle" x="331.628" y="-127.4" font-family="Bitstream-Vera Sans" font-size="7.00">+ id</text>
<text text-anchor="middle" x="321.072" y="-119.4" font-family="Bitstream-Vera Sans" font-size="7.00">+ taxa_id</text>
</g>
<!-- uniprot -->
<g id="node4" class="node"><title>uniprot</title>
<text text-anchor="start" x="146" y="-82.9" font-family="Bitstream-Vera Sans" font-size="7.00">uniprot</text>
<polygon fill="none" stroke="black" points="130,-76 130,-78 189,-78 189,-76 130,-76"/>
<text text-anchor="start" x="132" y="-68.4" font-family="Bitstream-Vera Sans" font-size="7.00">&#45; id</text>
<text text-anchor="start" x="132" y="-56.4" font-family="Bitstream-Vera Sans" font-size="7.00">&#45; uniprot_ac</text>
<text text-anchor="start" x="132" y="-44.4" font-family="Bitstream-Vera Sans" font-size="7.00">&#45; uniprot_entry</text>
<text text-anchor="start" x="132" y="-32.4" font-family="Bitstream-Vera Sans" font-size="7.00">&#45; refseq</text>
<text text-anchor="start" x="132" y="-20.4" font-family="Bitstream-Vera Sans" font-size="7.00">&#45; taxa_id</text>
<text text-anchor="start" x="132" y="-8.4" font-family="Bitstream-Vera Sans" font-size="7.00">&#45; gene_id</text>
<polygon fill="none" stroke="black" points="128.5,-3.5 128.5,-92.5 189.5,-92.5 189.5,-3.5 128.5,-3.5"/>
</g>
<!-- uniprot&#45;&gt;taxa -->
<g id="edge2" class="edge"><title>uniprot&#45;&gt;taxa</title>
<path fill="none" stroke="black" d="M197.641,-48.0035C227.45,-49.1641 269.642,-53.4243 304,-67 313.87,-70.9 323.662,-76.2624 332.846,-82.1623"/>
<ellipse fill="none" stroke="black" cx="336.415" cy="-84.5433" rx="4.00002" ry="4.00002"/>
<text text-anchor="middle" x="331.743" y="-81.1634" font-family="Bitstream-Vera Sans" font-size="7.00">+ id</text>
<text text-anchor="middle" x="215.141" y="-42.4035" font-family="Bitstream-Vera Sans" font-size="7.00">+ taxa_id</text>
</g>
<!-- uniprot&#45;&gt;genes -->
<g id="edge3" class="edge"><title>uniprot&#45;&gt;genes</title>
<path fill="none" stroke="black" d="M197.773,-74.9309C207.46,-81.8373 217.915,-89.2912 227.723,-96.284"/>
<ellipse fill="none" stroke="black" cx="231.135" cy="-98.7169" rx="4.00002" ry="4.00002"/>
<text text-anchor="middle" x="226.392" y="-95.4391" font-family="Bitstream-Vera Sans" font-size="7.00">+ id</text>
<text text-anchor="middle" x="216.273" y="-69.3309" font-family="Bitstream-Vera Sans" font-size="7.00">+ gene_id</text>
</g>
<!-- go_annotations -->
<g id="node5" class="node"><title>go_annotations</title>
<text text-anchor="start" x="14" y="-203.9" font-family="Bitstream-Vera Sans" font-size="7.00">go_annotations</text>
<polygon fill="none" stroke="black" points="10,-197 10,-199 75,-199 75,-197 10,-197"/>
<text text-anchor="start" x="12" y="-189.4" font-family="Bitstream-Vera Sans" font-size="7.00">&#45; id</text>
<text text-anchor="start" x="12" y="-177.4" font-family="Bitstream-Vera Sans" font-size="7.00">&#45; go_term_id</text>
<text text-anchor="start" x="12" y="-165.4" font-family="Bitstream-Vera Sans" font-size="7.00">&#45; evidence_code</text>
<text text-anchor="start" x="12" y="-153.4" font-family="Bitstream-Vera Sans" font-size="7.00">&#45; pubmed_refs</text>
<text text-anchor="start" x="12" y="-141.4" font-family="Bitstream-Vera Sans" font-size="7.00">&#45; uniprot_id</text>
<text text-anchor="start" x="12" y="-129.4" font-family="Bitstream-Vera Sans" font-size="7.00">&#45; gene_id</text>
<text text-anchor="start" x="12" y="-117.4" font-family="Bitstream-Vera Sans" font-size="7.00">&#45; taxa_id</text>
<polygon fill="none" stroke="black" points="8.5,-112.5 8.5,-213.5 75.5,-213.5 75.5,-112.5 8.5,-112.5"/>
</g>
<!-- go_annotations&#45;&gt;taxa -->
<g id="edge5" class="edge"><title>go_annotations&#45;&gt;taxa</title>
<path fill="none" stroke="black" d="M73.402,-217.468C85.5746,-233.915 101.219,-249.988 120,-259 151.255,-273.997 164.995,-269.605 198,-259 249.19,-242.553 298.254,-206.348 333.272,-175.714"/>
<ellipse fill="none" stroke="black" cx="336.651" cy="-172.718" rx="4.00002" ry="4.00002"/>
<text text-anchor="middle" x="331.644" y="-164.464" font-family="Bitstream-Vera Sans" font-size="7.00">+ id</text>
<text text-anchor="middle" x="55.902" y="-219.868" font-family="Bitstream-Vera Sans" font-size="7.00">+ taxa_id</text>
</g>
<!-- go_annotations&#45;&gt;go_terms -->
<g id="edge6" class="edge"><title>go_annotations&#45;&gt;go_terms</title>
<path fill="none" stroke="black" d="M83.5447,-176.75C93.7478,-180.21 104.733,-183.936 115.05,-187.434"/>
<ellipse fill="none" stroke="black" cx="118.996" cy="-188.773" rx="4.00001" ry="4.00001"/>
<text text-anchor="middle" x="114.784" y="-184.457" font-family="Bitstream-Vera Sans" font-size="7.00">+ id</text>
<text text-anchor="middle" x="108.045" y="-171.15" font-family="Bitstream-Vera Sans" font-size="7.00">+ go_term_id</text>
</g>
<!-- go_annotations&#45;&gt;genes -->
<g id="edge4" class="edge"><title>go_annotations&#45;&gt;genes</title>
<path fill="none" stroke="black" d="M83.6085,-152.743C95.3068,-149.997 108.118,-147.186 120,-145 155.662,-138.438 196.529,-133.076 226.271,-129.563"/>
<ellipse fill="none" stroke="black" cx="230.378" cy="-129.084" rx="4.00001" ry="4.00001"/>
<text text-anchor="middle" x="226.351" y="-123.021" font-family="Bitstream-Vera Sans" font-size="7.00">+ id</text>
<text text-anchor="middle" x="102.109" y="-147.143" font-family="Bitstream-Vera Sans" font-size="7.00">+ gene_id</text>
</g>
<!-- go_annotations&#45;&gt;uniprot -->
<g id="edge7" class="edge"><title>go_annotations&#45;&gt;uniprot</title>
<path fill="none" stroke="black" d="M83.5447,-122.455C93.4912,-112.509 104.181,-101.819 114.27,-91.73"/>
<ellipse fill="none" stroke="black" cx="117.302" cy="-88.6978" rx="4.00002" ry="4.00002"/>
<text text-anchor="middle" x="112.131" y="-80.2694" font-family="Bitstream-Vera Sans" font-size="7.00">+ id</text>
<text text-anchor="middle" x="106.545" y="-116.855" font-family="Bitstream-Vera Sans" font-size="7.00">+ uniprot_id</text>
</g>
</g>
</svg>
